<svg xmlns="http://www.w3.org/2000/svg" viewBox="0 0 26 26" fill="none" x="0px" y="0px">
    <path d="M14.0832 11.9166V8.66663H11.9165V11.9166H8.6665V14.0833H11.9165V17.3333H14.0832V14.0833H17.3332V11.9166H14.0832Z" fill="#00ff00"/>
    <path d="M22.7498 4.33329V3.24996H21.6665V2.16663H4.33317V3.24996H3.24984V4.33329H2.1665V21.6666H3.24984V22.75H4.33317V23.8333H21.6665V22.75H22.7498V21.6666H23.8332V4.33329H22.7498ZM21.6665 19.5H20.5832V20.5833H19.4998V21.6666H6.49984V20.5833H5.4165V19.5H4.33317V6.49996H5.4165V5.41663H6.49984V4.33329H19.4998V5.41663H20.5832V6.49996H21.6665V19.5Z" fill="#00ff00"/>
</svg>
