<?xml version="1.0" encoding="UTF-8" standalone="no"?>
<svg
   xmlns:dc="http://purl.org/dc/elements/1.1/"
   xmlns:cc="http://creativecommons.org/ns#"
   xmlns:rdf="http://www.w3.org/1999/02/22-rdf-syntax-ns#"
   xmlns:svg="http://www.w3.org/2000/svg"
   xmlns="http://www.w3.org/2000/svg"
   xmlns:sodipodi="http://sodipodi.sourceforge.net/DTD/sodipodi-0.dtd"
   xmlns:inkscape="http://www.inkscape.org/namespaces/inkscape"
   version="1.1"
   id="Layer_1"
   x="0px"
   y="0px"
   width="850.4px"
   height="850.4px"
   viewBox="0 0 850.4 850.4"
   style="enable-background:new 0 0 850.4 850.4;"
   xml:space="preserve"
   sodipodi:docname="Donut.svg"
   inkscape:version="1.0.1 (3bc2e813f5, 2020-09-07)"><metadata
   id="metadata15"><rdf:RDF><cc:Work
       rdf:about=""><dc:format>image/svg+xml</dc:format><dc:type
         rdf:resource="http://purl.org/dc/dcmitype/StillImage" /><dc:title></dc:title></cc:Work></rdf:RDF></metadata><defs
   id="defs13" /><sodipodi:namedview
   pagecolor="#ffffff"
   bordercolor="#666666"
   borderopacity="1"
   objecttolerance="10"
   gridtolerance="10"
   guidetolerance="10"
   inkscape:pageopacity="0"
   inkscape:pageshadow="2"
   inkscape:window-width="1455"
   inkscape:window-height="1368"
   id="namedview11"
   showgrid="false"
   inkscape:zoom="0.86429913"
   inkscape:cx="425.20001"
   inkscape:cy="425.20001"
   inkscape:window-x="0"
   inkscape:window-y="1517"
   inkscape:window-maximized="0"
   inkscape:current-layer="Layer_1" />
<style
   type="text/css"
   id="style2">
	.st0{fill:#ECC387;}
	.st1{fill:#EEE3E7;}
	.st2{fill:#F06491;}
</style>
<path
   class="st0"
   d="M425,0.1C192.5,0.1,4.1,188.5,4.1,421S192.5,841.9,425,841.9S845.9,653.5,845.9,421S657.5,0.1,425,0.1z   M542.4,428.7c-0.3,5.6-1.1,11.1-2.2,16.5c-5.2,24.8-18.1,46.6-36.2,63c-6.3,5.7-13.1,10.7-20.5,14.9c-17.2,9.9-37.2,15.5-58.5,15.5  c-23.7,0-45.7-7-64.2-19c-7.1-4.6-13.7-10-19.6-16c-9.5-9.6-17.4-20.9-23.1-33.3c-2.3-5-4.3-10.2-5.9-15.5  c-3.2-10.7-4.9-22-4.9-33.7c0-26.9,9-51.6,24.2-71.5c4-5.3,8.5-10.2,13.4-14.7c21-19.5,49.2-31.5,80.1-31.5  c44.2,0,82.8,24.4,102.8,60.5c3.2,5.8,6,11.8,8.2,18.2c4.3,12.2,6.6,25.3,6.6,39C542.7,423.6,542.6,426.2,542.4,428.7z"
   id="path4" />
<path
   class="st1"
   d="M790.1,255.3c-20.7-22.8-49-36.5-69-60.8c-15.4-18.8-23-49.8-45.7-82.2c-17.6-25.1-49.6-35.6-79.9-39.2  C570.4,70.2,545,70.9,520,67c-24.7-3.9-46.9-14.7-70.2-23c-24.2-8.6-51.7-13.6-74.9-2.6C330.5,62.4,283.2,76.2,236,89  c-43,11.6-81.1,36.4-95.8,80.6c-4.9,15-6.9,31.2-15.1,44.6c-13.2,21.6-38.2,24.4-54.1,41c-14.2,14.9-9.5,33.6-5.6,51.6  c4.5,21,8.2,41.3,2.4,62.5c-10.4,38.3-23.9,73.9-24.4,114.2c-0.5,40.5,8.5,81.3,28.2,116.8c14.5,26.1,35.4,49.6,54.7,72.2  c11.5,13.4,24.7,25.5,41.2,32.3c17.6,7.4,38.3,6.5,54.7,16.8c14.4,9,21.9,24.9,31.8,38.1c9.5,12.7,20.8,20.2,35.1,26.5  c33.9,14.9,72.7,18.7,109.3,19.2c109.5,1.6,137.4-30.5,141.9-41.2c7.3-17.4,28.6-24.2,47.4-24.9c18.9-0.8,38.4,2.2,56.1-4.5  c25.2-9.6,39.2-35.7,56-56.8c21.6-27.2,50.2-48.2,72.2-75.1c14.8-18,26.7-40.2,29.2-63.7c2.7-25.8-14-43.9-16.1-68.3  c-1-11.5,2.4-21.2,6.9-30.7c3.1-6.4,6.7-12.8,9.7-19.5c7.3-15.9,10.6-34.3,12.3-51.6C817.3,334.5,814.6,282.3,790.1,255.3z   M542.4,428.7c-0.3,5.6-1.1,11.1-2.2,16.5c-5.2,24.8-18.1,46.6-36.2,63c-6.3,5.7-13.1,10.7-20.5,14.9c-17.2,9.9-37.2,15.5-58.5,15.5  c-23.7,0-45.7-7-64.2-19c-7.1-4.6-13.7-10-19.6-16c-9.5-9.6-17.4-20.9-23.1-33.3c-2.3-5-4.3-10.2-5.9-15.5  c-3.2-10.7-4.9-22-4.9-33.7c0-26.9,9-51.6,24.2-71.5c4-5.3,8.5-10.2,13.4-14.7c21-19.5,49.2-31.5,80.1-31.5  c44.2,0,82.8,24.4,102.8,60.5c3.2,5.8,6,11.8,8.2,18.2c4.3,12.2,6.6,25.3,6.6,39C542.7,423.6,542.6,426.2,542.4,428.7z"
   id="path6" />
<path
   class="st2"
   d="M701.5,419.7C649.1,405.8,593.4,393.1,536,382c4.3,12.2,6.6,25.3,6.6,39c0,2.6-0.1,5.2-0.3,7.7  c49.7-3.2,99.5-4.8,148.8-4.8c3.2,0,6.5,0,9.7,0C703.5,423.9,703.9,420.3,701.5,419.7z M318.1,470.3c-55,8.9-109.1,19.7-161.8,32.4  c-2.5,0.6-2.1,4.3,0.5,4.3c38.8,0.3,77.5-0.7,115.4-1.8c22.7-0.6,45.7-1.2,68.9-1.6C331.7,494,323.8,482.7,318.1,470.3z   M318.1,470.3c-55,8.9-109.1,19.7-161.8,32.4c-2.5,0.6-2.1,4.3,0.5,4.3c38.8,0.3,77.5-0.7,115.4-1.8c22.7-0.6,45.7-1.2,68.9-1.6  C331.7,494,323.8,482.7,318.1,470.3z M701.5,419.7C649.1,405.8,593.4,393.1,536,382c4.3,12.2,6.6,25.3,6.6,39c0,2.6-0.1,5.2-0.3,7.7  c49.7-3.2,99.5-4.8,148.8-4.8c3.2,0,6.5,0,9.7,0C703.5,423.9,703.9,420.3,701.5,419.7z M701.5,419.7  C649.1,405.8,593.4,393.1,536,382c4.3,12.2,6.6,25.3,6.6,39c0,2.6-0.1,5.2-0.3,7.7c49.7-3.2,99.5-4.8,148.8-4.8c3.2,0,6.5,0,9.7,0  C703.5,423.9,703.9,420.3,701.5,419.7z M156.3,502.6c-2.5,0.6-2.1,4.3,0.5,4.3c38.8,0.3,77.5-0.7,115.4-1.8  c22.7-0.6,45.7-1.2,68.9-1.6c-9.5-9.6-17.4-20.9-23.1-33.3C263.1,479.1,209,490,156.3,502.6z M790.1,255.3  c-20.7-22.8-49-36.5-69-60.8c-15.4-18.8-23-49.8-45.7-82.2c-17.6-25.1-49.6-35.6-79.9-39.2C570.4,70.2,545,70.9,520,67  c-24.7-3.9-46.9-14.7-70.2-23c-24.2-8.6-51.7-13.6-74.9-2.6C330.5,62.4,283.2,76.2,236,89c-43,11.6-81.1,36.4-95.8,80.6  c-4.9,15-6.9,31.2-15.1,44.6c-13.2,21.6-38.2,24.4-54.1,41c-14.2,14.9-9.5,33.6-5.6,51.6c4.5,21,8.2,41.3,2.4,62.5  c-10.4,38.3-23.9,73.9-24.4,114.2c-0.5,40.5,8.5,81.3,28.2,116.8c14.5,26.1,35.4,49.6,54.7,72.2c11.5,13.4,24.7,25.5,41.2,32.3  c17.6,7.4,38.3,6.5,54.7,16.8c14.4,9,21.9,24.9,31.8,38.1c9.5,12.7,20.8,20.2,35.1,26.5c33.9,14.9,72.7,18.7,109.3,19.2  c109.5,1.6,137.4-30.5,141.9-41.2c7.3-17.4,28.6-24.2,47.4-24.9c18.9-0.8,38.4,2.2,56.1-4.5c25.2-9.6,39.2-35.7,56-56.8  c21.6-27.2,50.2-48.2,72.2-75.1c14.8-18,26.7-40.2,29.2-63.7c2.7-25.8-14-43.9-16.1-68.3c-1-11.5,2.4-21.2,6.9-30.7  c3.1-6.4,6.7-12.8,9.7-19.5c7.3-15.9,10.6-34.3,12.3-51.6C817.3,334.5,814.6,282.3,790.1,255.3z M789.4,313.1  c-92.6-13-195.3-19.4-298.7-19.4c-106.6,0-214,6.8-312,20.1c-2.6,0.3-2.5,4.1,0.2,4.3c54.6,3.8,110.4,9.4,166.1,16.6  c21-19.5,49.2-31.5,80.1-31.5c44.2,0,82.8,24.4,102.8,60.5c91.1,17.3,178.2,38.4,255.3,62.3c3.9,1.2,5.7,4.4,5.7,7.7  c0,4.2-3.1,8.5-8.5,8.3c-29.7-1.2-59.5-1.8-89.6-1.8c-49.9,0-100.3,1.7-150.6,5c-5.2,24.8-18.1,46.6-36.2,63  c115.4,8.7,203.4,28.6,267.3,60.3c3.1,1.6,4.5,4.4,4.5,7.2c0,4.5-3.6,9-9.2,8.2c-76.6-10.3-159.1-15.4-242.9-15.4  c-114.3,0-230.6,9.4-336.9,27.7c-2.6,0.4-2.4,4.2,0.2,4.3c193.3,10.7,356.3,39.8,485.5,86.7c3.7,1.4,5.4,4.5,5.4,7.6  c0,4.1-3,8.2-8.1,8.3c-72.3,0.3-139.7,3.9-201.7,10.9c-62,6.9-118.7,17.1-169.6,30.5c-4.3,1.2-8.8-1.4-9.9-5.7  c-1.2-4.4,1.4-8.9,5.8-10c91.8-24.2,201.9-38,327.8-41.2c-139.7-43.7-314.9-68.6-521.8-74.1c-5.1-0.1-7.9-4.2-7.9-8.2  c0-3.4,2-6.9,6.3-7.9h0c176.8-40.9,395.7-54.7,589.4-38.3c2.6,0.2,3.3-3.5,0.8-4.2c-55.7-16-123.8-26.4-205.5-31.6  c-17.2,9.9-37.2,15.5-58.5,15.5c-23.7,0-45.7-7-64.2-19c-29.6,0.2-59.2,1.1-88.1,1.8c-61.6,1.7-125.2,3.4-188-0.7  c-5-0.3-7.7-4.3-7.7-8.2c0-3.3,1.9-6.7,6-7.8c73.5-20.5,150.5-37.3,229.3-50.1c-3.2-10.7-4.9-22-4.9-33.7c0-26.9,9-51.6,24.2-71.5  c-84.6-10.5-169-17.4-249.1-20c-5.2-0.2-7.9-4.2-7.9-8.2c0-3.5,2.1-7.1,6.6-8h0C271,276.3,516.8,267.4,725.8,289  c2.5,0.2,3.4-3.3,1-4.2c-87-34.5-186.4-53.8-259-60.7c-90.1-8.5-187.3-10.3-306.1-5.8h-0.4c-9.1,0-11.3-13-2.5-15.9  c71.6-23.8,143-42.6,213.9-56.2c70.9-13.6,141.2-22.2,210.6-25.5c2.6-0.1,2.9-3.7,0.4-4.3C498.7,95.7,410,88.3,323.1,95  c-4.5,0.4-8.4-2.9-8.8-7.4c0-0.2,0-0.5,0-0.7c0-4.2,3.2-7.9,7.5-8.2c111.3-8.5,225.7,5.5,331.5,40.8c3.8,1.3,5.6,4.5,5.6,7.7  c0,4.1-3,8.3-8.2,8.2h-1c-134.9,0-273.8,20.3-414,60.3c-2.5,0.7-1.9,4.3,0.6,4.3c86.6-1.3,161.9,1.3,232.8,8  c91.6,8.6,225.1,36.8,325,90c3,1.6,4.3,4.3,4.3,7.1C798.7,309.4,795,313.9,789.4,313.1z M542.4,428.7c49.7-3.2,99.5-4.8,148.8-4.8  c3.2,0,6.5,0,9.7,0c2.6,0,3-3.6,0.6-4.3C649.1,405.8,593.4,393.1,536,382c4.3,12.2,6.6,25.3,6.6,39  C542.7,423.6,542.6,426.2,542.4,428.7z M156.3,502.6c-2.5,0.6-2.1,4.3,0.5,4.3c38.8,0.3,77.5-0.7,115.4-1.8  c22.7-0.6,45.7-1.2,68.9-1.6c-9.5-9.6-17.4-20.9-23.1-33.3C263.1,479.1,209,490,156.3,502.6z M318.1,470.3  c-55,8.9-109.1,19.7-161.8,32.4c-2.5,0.6-2.1,4.3,0.5,4.3c38.8,0.3,77.5-0.7,115.4-1.8c22.7-0.6,45.7-1.2,68.9-1.6  C331.7,494,323.8,482.7,318.1,470.3z M701.5,419.7C649.1,405.8,593.4,393.1,536,382c4.3,12.2,6.6,25.3,6.6,39c0,2.6-0.1,5.2-0.3,7.7  c49.7-3.2,99.5-4.8,148.8-4.8c3.2,0,6.5,0,9.7,0C703.5,423.9,703.9,420.3,701.5,419.7z M318.1,470.3c-55,8.9-109.1,19.7-161.8,32.4  c-2.5,0.6-2.1,4.3,0.5,4.3c38.8,0.3,77.5-0.7,115.4-1.8c22.7-0.6,45.7-1.2,68.9-1.6C331.7,494,323.8,482.7,318.1,470.3z   M318.1,470.3c-55,8.9-109.1,19.7-161.8,32.4c-2.5,0.6-2.1,4.3,0.5,4.3c38.8,0.3,77.5-0.7,115.4-1.8c22.7-0.6,45.7-1.2,68.9-1.6  C331.7,494,323.8,482.7,318.1,470.3z M701.5,419.7C649.1,405.8,593.4,393.1,536,382c4.3,12.2,6.6,25.3,6.6,39c0,2.6-0.1,5.2-0.3,7.7  c49.7-3.2,99.5-4.8,148.8-4.8c3.2,0,6.5,0,9.7,0C703.5,423.9,703.9,420.3,701.5,419.7z"
   id="path8" />
</svg>
